<svg id="Laag_1" data-name="Laag 1" xmlns="http://www.w3.org/2000/svg" viewBox="0 0 992.13 198.43"><defs><style>.cls-1{fill:#e10717;}.cls-2{fill:#25211e;}</style></defs><title>Tekengebied 1</title><path class="cls-1" d="M113.65,21.52,95.73,37.15c-7.41-7.38-16.88-11-28.59-11A37.22,37.22,0,0,0,40.1,37c-7.41,7.21-11,16.14-11,27s3.62,19.75,10.85,27c7.41,7,16.36,10.65,27.21,10.65,10.51,0,19.29-3.09,26.18-9.27V76.13H61.8V52.78h56.32v48.43c-11.2,14.94-30.14,24.39-51,24.39-18.08,0-33.24-5.84-45.82-17.52C8.75,96.23,2.55,81.63,2.55,63.94S8.75,31.65,21.32,19.8,49.06,2.11,67.14,2.11C85.57,2.11,101.07,8.64,113.65,21.52Z"/><path class="cls-1" d="M126.56,123.7,176.17,4h23.6l49.61,119.7H221.12L213,103.61H162.91l-8.1,20.09Zm43.92-41.22h35L188.05,39Z"/><path class="cls-1" d="M263.67,123.7V4h22.22l41.17,61.31L368.22,4h22.22V123.7h-25v-73l-38.41,56.67L288.47,50.72v73Z"/><path class="cls-1" d="M413.86,123.7V4h82V28H440.38v22.5h51.84V74.07H440.38V99.66h56.67v24Z"/><path class="cls-2" d="M516.68,123.7V4h50.64c10.16,0,19.29,3.78,27.73,11.16S607.8,32.34,607.8,44.53c0,11.68-4.13,21.3-12.4,29s-17.57,11.51-28.08,11.51H543.21V123.7ZM543.21,61h22.56a16.81,16.81,0,0,0,10.51-3.78c3.27-2.58,5-6.87,5-12.71s-1.72-10-5-12.54A17,17,0,0,0,565.77,28H543.21Z"/><path class="cls-2" d="M732,24.44,713.9,39.72c-8.1-9.1-18.26-13.57-30.49-13.57a37.22,37.22,0,0,0-27,10.82c-7.41,7.21-11,16.14-11,27s3.62,19.75,10.85,27c7.41,7,16.36,10.65,27.21,10.65a39.26,39.26,0,0,0,30.66-13.74l18.09,15.28a63.66,63.66,0,0,1-48.74,22.5c-18.09,0-33.24-5.84-45.82-17.52C625,96.23,618.82,81.63,618.82,63.94S625,31.65,637.59,19.8,665.32,2.11,683.41,2.11A64.3,64.3,0,0,1,732,24.44Z"/><path class="cls-2" d="M743.86,101.55a14,14,0,0,1,19.81,0,13.37,13.37,0,0,1,0,19.58,14,14,0,0,1-19.81,0A13.66,13.66,0,0,1,743.86,101.55Z"/><path class="cls-2" d="M784,123.7V4h23.6l57.53,74.36V4h25.66V123.7h-21.7L809.66,47.28V123.7Z"/><path class="cls-2" d="M914.21,123.7V4h26.52V99.66h46.85v24Z"/><path class="cls-2" d="M2.56,176.41a19.89,19.89,0,0,1,6-14.79,20.56,20.56,0,0,1,14.83-6,20.33,20.33,0,0,1,14.77,6,21.06,21.06,0,0,1,0,29.63,20.28,20.28,0,0,1-14.77,5.9,20.51,20.51,0,0,1-14.83-5.9A20,20,0,0,1,2.56,176.41Zm4.43,0a16.36,16.36,0,0,0,4.66,11.92A16,16,0,0,0,23.42,193a15.75,15.75,0,0,0,11.73-4.7,17.52,17.52,0,0,0,0-23.79,15.8,15.8,0,0,0-11.73-4.76,16,16,0,0,0-11.78,4.76A16.23,16.23,0,0,0,7,176.41Z"/><path class="cls-2" d="M52.28,196.35v-40h4.14l15.29,25.34L87,156.4h4.08v40H86.66V165.23L71.72,189.65l-15-24.36v31.07Z"/><path class="cls-2" d="M101.67,196.35v-40h12.88c6.38,0,11.44,1.83,15.12,5.5s5.58,8.48,5.58,14.5-1.84,10.83-5.52,14.5-8.74,5.45-15.12,5.45Zm4.48-4.13h8.11c10.81,0,16.5-6.19,16.5-15.82s-5.69-15.88-16.56-15.88h-8Z"/><path class="cls-2" d="M137.83,196.35l17-40h3.45l17,40h-4.83l-4.14-9.86H146.8l-4.14,9.86Zm10.69-14h16l-8-19Z"/><path class="cls-2" d="M185,196.35V160.53H174V156.4h26.33v4.13H189.45v35.82Z"/><path class="cls-2" d="M226.48,196.35v-40h12.88c6.38,0,11.44,1.83,15.12,5.5s5.58,8.48,5.58,14.5-1.84,10.83-5.52,14.5-8.74,5.45-15.12,5.45Zm4.48-4.13h8.11c10.81,0,16.5-6.19,16.5-15.82s-5.69-15.88-16.56-15.88h-8Z"/><path class="cls-2" d="M268.22,196.35v-40h22.65v4.13H272.7V173.2h17.07v4.13H272.7v14.9h18.57v4.13Z"/><path class="cls-2" d="M353.87,160.87l-2.82,3.1a16.74,16.74,0,0,0-22.76.57,17.52,17.52,0,0,0,0,23.79A15.75,15.75,0,0,0,340,193a16,16,0,0,0,11-4V178.7H338.75v-4.13h16.73v16A20.16,20.16,0,0,1,340,197.16a20.51,20.51,0,0,1-14.83-5.9,21.2,21.2,0,0,1,0-29.63,20.56,20.56,0,0,1,14.83-6A19.65,19.65,0,0,1,353.87,160.87Z"/><path class="cls-2" d="M361,196.35l17-40h3.45l17,40h-4.83l-4.14-9.86H370l-4.14,9.86Zm10.69-14h16l-8-19Z"/><path class="cls-2" d="M405.67,196.35v-40h4.14l15.29,25.34,15.29-25.34h4.08v40H440V165.23L425.1,189.65l-15-24.36v31.07Z"/><path class="cls-2" d="M455.06,196.35v-40h22.65v4.13H459.54V173.2h17.07v4.13H459.54v14.9h18.57v4.13Z"/><path class="cls-2" d="M487.54,185.81c2,4.81,5.35,7.22,10.06,7.22,3.39,0,5.81-1.15,6.78-2.81a7.74,7.74,0,0,0,1.26-4.24,6.26,6.26,0,0,0-2-5,29.28,29.28,0,0,0-7-3.9,29.94,29.94,0,0,1-8-4.76,8.85,8.85,0,0,1-2.53-6.76,9.2,9.2,0,0,1,3.1-7.11,11.23,11.23,0,0,1,7.88-2.81A11.49,11.49,0,0,1,507.95,162L504.09,164a7.42,7.42,0,0,0-7-4.18c-3.62,0-6.44,2.41-6.44,5.68a5.27,5.27,0,0,0,2.36,4.81c1,.63,1.72,1.15,2.36,1.49l3.45,1.55c4.08,1.78,7,3.55,8.68,5.33s2.64,4.13,2.64,7.28a10.62,10.62,0,0,1-3.34,8.08c-2.18,2.12-5.29,3.15-9.25,3.15-6.38,0-11.55-3.21-13.85-9.57Z"/><path class="cls-2" d="M541.06,196.35v-40h4.48v16.68h22.25V156.4h4.48v40h-4.48V177.21H545.54v19.14Z"/><path class="cls-2" d="M582.86,196.35v-40H605.5v4.13H587.34V173.2h17.07v4.13H587.34v14.9h18.57v4.13Z"/><path class="cls-2" d="M621.78,196.35V160.53H610.85V156.4h26.33v4.13H626.26v35.82Z"/><path class="cls-2" d="M668.69,196.35,657,156.4h4.54l8.91,30.21,9.89-30.21h3.1l9.89,30.21,8.91-30.21h4.54l-11.73,40h-2.87l-10.29-30.89-10.29,30.89Z"/><path class="cls-2" d="M705.71,196.35l17-40h3.45l17,40h-4.83l-4.14-9.86H714.68l-4.14,9.86Zm10.69-14h16l-8-19Z"/><path class="cls-2" d="M745.38,196.35l17-40h3.45l17,40h-4.83l-4.14-9.86H754.35l-4.14,9.86Zm10.69-14h16l-8-19Z"/><path class="cls-2" d="M790,196.35v-40h13.68a11.73,11.73,0,0,1,8.51,3.44,11.22,11.22,0,0,1,3.51,8.48,11.9,11.9,0,0,1-7.65,11.35l9.66,16.68h-5.12l-9-15.82h-9.08v15.82Zm4.48-19.95h8.74a7.55,7.55,0,0,0,5.69-2.29,7.76,7.76,0,0,0,2.3-5.79,7.58,7.58,0,0,0-7.7-7.8h-9Z"/><path class="cls-2" d="M824.89,196.35v-40h12.88c6.38,0,11.44,1.83,15.12,5.5s5.58,8.48,5.58,14.5-1.84,10.83-5.52,14.5-8.74,5.45-15.12,5.45Zm4.48-4.13h8.11c10.81,0,16.5-6.19,16.5-15.82s-5.69-15.88-16.56-15.88h-8Z"/><path class="cls-2" d="M882.66,196.35V193.6l24.6-33.07H885.48V156.4H913.3v3l-24.43,32.84h24.84v4.13Z"/><path class="cls-2" d="M921.87,196.35v-40h4.48v40Z"/><path class="cls-2" d="M932.68,192.4a7.8,7.8,0,0,0,3,.57c3.79-.23,4.54-3.15,4.48-7.45V156.4h4.48v28.95a20.37,20.37,0,0,1-.75,6.65c-.92,3.21-3.16,4.93-7.93,5.16a11,11,0,0,1-3.34-.52Z"/><path class="cls-2" d="M955,196.35v-40h3.91l24.2,32v-32h4.48v40H984L959.47,164v32.33Z"/></svg>